<mxfile host="app.diagrams.net" agent="Mozilla/5.0 (Windows NT 10.0; Win64; x64) AppleWebKit/537.36 (KHTML, like Gecko) Chrome/141.0.0.0 Safari/537.36 Edg/141.0.0.0" version="28.2.5">
  <diagram name="Página-1" id="S7YTJ9rorQyaULHSOZtd">
    <mxGraphModel dx="2245" dy="786" grid="1" gridSize="10" guides="1" tooltips="1" connect="1" arrows="1" fold="1" page="1" pageScale="1" pageWidth="827" pageHeight="1169" background="#ffffff" math="0" shadow="0">
      <root>
        <mxCell id="0" />
        <mxCell id="1" parent="0" />
        <mxCell id="sZH2aLDt-uR4K2a4QQyU-8" value="" style="edgeStyle=orthogonalEdgeStyle;rounded=0;orthogonalLoop=1;jettySize=auto;html=1;" edge="1" parent="1" source="uxtN9aGpHG5_g07FjMfj-32" target="sZH2aLDt-uR4K2a4QQyU-1">
          <mxGeometry relative="1" as="geometry" />
        </mxCell>
        <mxCell id="uxtN9aGpHG5_g07FjMfj-32" value="Início" style="ellipse;whiteSpace=wrap;html=1;fillColor=#f8cecc;strokeColor=#b85450;" parent="1" vertex="1">
          <mxGeometry x="354" y="40" width="120" height="80" as="geometry" />
        </mxCell>
        <mxCell id="sZH2aLDt-uR4K2a4QQyU-9" value="" style="edgeStyle=orthogonalEdgeStyle;rounded=0;orthogonalLoop=1;jettySize=auto;html=1;" edge="1" parent="1" source="sZH2aLDt-uR4K2a4QQyU-1" target="sZH2aLDt-uR4K2a4QQyU-2">
          <mxGeometry relative="1" as="geometry" />
        </mxCell>
        <mxCell id="sZH2aLDt-uR4K2a4QQyU-1" value="Ler num" style="shape=parallelogram;perimeter=parallelogramPerimeter;whiteSpace=wrap;html=1;fixedSize=1;fillColor=#dae8fc;strokeColor=#6c8ebf;" vertex="1" parent="1">
          <mxGeometry x="354" y="160" width="120" height="60" as="geometry" />
        </mxCell>
        <mxCell id="sZH2aLDt-uR4K2a4QQyU-10" value="" style="edgeStyle=orthogonalEdgeStyle;rounded=0;orthogonalLoop=1;jettySize=auto;html=1;" edge="1" parent="1" source="sZH2aLDt-uR4K2a4QQyU-2" target="sZH2aLDt-uR4K2a4QQyU-4">
          <mxGeometry relative="1" as="geometry" />
        </mxCell>
        <mxCell id="sZH2aLDt-uR4K2a4QQyU-11" value="" style="edgeStyle=orthogonalEdgeStyle;rounded=0;orthogonalLoop=1;jettySize=auto;html=1;" edge="1" parent="1" source="sZH2aLDt-uR4K2a4QQyU-2" target="sZH2aLDt-uR4K2a4QQyU-5">
          <mxGeometry relative="1" as="geometry" />
        </mxCell>
        <mxCell id="sZH2aLDt-uR4K2a4QQyU-2" value="num == 0" style="rhombus;whiteSpace=wrap;html=1;fillColor=#fff2cc;strokeColor=#d6b656;" vertex="1" parent="1">
          <mxGeometry x="346" y="260" width="136" height="70" as="geometry" />
        </mxCell>
        <mxCell id="sZH2aLDt-uR4K2a4QQyU-3" value="Fim" style="ellipse;whiteSpace=wrap;html=1;fillColor=#d5e8d4;strokeColor=#82b366;" vertex="1" parent="1">
          <mxGeometry x="-30" y="255" width="120" height="80" as="geometry" />
        </mxCell>
        <mxCell id="sZH2aLDt-uR4K2a4QQyU-12" value="" style="edgeStyle=orthogonalEdgeStyle;rounded=0;orthogonalLoop=1;jettySize=auto;html=1;" edge="1" parent="1" source="sZH2aLDt-uR4K2a4QQyU-4" target="sZH2aLDt-uR4K2a4QQyU-3">
          <mxGeometry relative="1" as="geometry" />
        </mxCell>
        <mxCell id="sZH2aLDt-uR4K2a4QQyU-4" value="Escrever &quot;Vá para o caraças&quot;" style="shape=parallelogram;perimeter=parallelogramPerimeter;whiteSpace=wrap;html=1;fixedSize=1;fillColor=#dae8fc;strokeColor=#6c8ebf;" vertex="1" parent="1">
          <mxGeometry x="160" y="265" width="120" height="60" as="geometry" />
        </mxCell>
        <mxCell id="sZH2aLDt-uR4K2a4QQyU-13" value="" style="edgeStyle=orthogonalEdgeStyle;rounded=0;orthogonalLoop=1;jettySize=auto;html=1;" edge="1" parent="1" source="sZH2aLDt-uR4K2a4QQyU-5" target="sZH2aLDt-uR4K2a4QQyU-6">
          <mxGeometry relative="1" as="geometry" />
        </mxCell>
        <mxCell id="sZH2aLDt-uR4K2a4QQyU-14" value="" style="edgeStyle=orthogonalEdgeStyle;rounded=0;orthogonalLoop=1;jettySize=auto;html=1;" edge="1" parent="1" source="sZH2aLDt-uR4K2a4QQyU-5" target="sZH2aLDt-uR4K2a4QQyU-7">
          <mxGeometry relative="1" as="geometry" />
        </mxCell>
        <mxCell id="sZH2aLDt-uR4K2a4QQyU-5" value="num % 2 == 0" style="rhombus;whiteSpace=wrap;html=1;fillColor=#fff2cc;strokeColor=#d6b656;" vertex="1" parent="1">
          <mxGeometry x="346" y="370" width="136" height="70" as="geometry" />
        </mxCell>
        <mxCell id="sZH2aLDt-uR4K2a4QQyU-16" style="edgeStyle=orthogonalEdgeStyle;rounded=0;orthogonalLoop=1;jettySize=auto;html=1;" edge="1" parent="1" source="sZH2aLDt-uR4K2a4QQyU-6" target="uxtN9aGpHG5_g07FjMfj-32">
          <mxGeometry relative="1" as="geometry">
            <Array as="points">
              <mxPoint x="710" y="510" />
              <mxPoint x="710" y="80" />
            </Array>
          </mxGeometry>
        </mxCell>
        <mxCell id="sZH2aLDt-uR4K2a4QQyU-6" value="Escrever &quot;O número é par&quot;" style="shape=parallelogram;perimeter=parallelogramPerimeter;whiteSpace=wrap;html=1;fixedSize=1;fillColor=#dae8fc;strokeColor=#6c8ebf;" vertex="1" parent="1">
          <mxGeometry x="354" y="480" width="120" height="60" as="geometry" />
        </mxCell>
        <mxCell id="sZH2aLDt-uR4K2a4QQyU-15" style="edgeStyle=orthogonalEdgeStyle;rounded=0;orthogonalLoop=1;jettySize=auto;html=1;" edge="1" parent="1" source="sZH2aLDt-uR4K2a4QQyU-7" target="uxtN9aGpHG5_g07FjMfj-32">
          <mxGeometry relative="1" as="geometry">
            <Array as="points">
              <mxPoint x="590" y="80" />
            </Array>
          </mxGeometry>
        </mxCell>
        <mxCell id="sZH2aLDt-uR4K2a4QQyU-7" value="Escrever &quot;O número é ímpar&quot;" style="shape=parallelogram;perimeter=parallelogramPerimeter;whiteSpace=wrap;html=1;fixedSize=1;fillColor=#dae8fc;strokeColor=#6c8ebf;" vertex="1" parent="1">
          <mxGeometry x="530" y="375" width="120" height="60" as="geometry" />
        </mxCell>
      </root>
    </mxGraphModel>
  </diagram>
</mxfile>
